# xmcd
#
# Track frame offsets:
#	150
#	16024
#	25194
#	78986
#	88068
#	102648
#	128474
#
# Disc length: 2462 seconds
#
# Revision: 1
# Processed by: cddbd v1.5.1PL0 Copyright (c) Steve Scherf et al.
# Submitted via: CDex 1.50Beta5
#
DISCID=46099c07
DTITLE=FrontWing - なめらかマーガリン
DYEAR=1900
DGENRE=Game
TTITLE0=フーリガン ドラマCd導入
TTITLE1=君のなかの勇気(Harf)
TTITLE2=フーリガン ドラマCd本編
TTITLE3=２人の未然形(Harf)
TTITLE4=フーリガン-Hiromix-
TTITLE5=フーリガン-Hiromix-(KARAOKE)
TTITLE6=データ トラック
EXTD=
EXTT0=
EXTT1=
EXTT2=
EXTT3=
EXTT4=
EXTT5=
EXTT6=
PLAYORDER=
